<svg width="1" height="1" viewBox="0 0 1 1" fill="none" xmlns="http://www.w3.org/2000/svg">
<g id="plus">
<path id="shape" d="M0.0117152 0.0186234C0.0122721 0.0186234 0.0127299 0.0181503 0.0127299 0.0176315V0.013092H0.0171778C0.0177119 0.013092 0.0181773 0.0126343 0.0181773 0.0120773C0.0181773 0.011528 0.0177119 0.0110626 0.0171778 0.0110626H0.0127299V0.00652313C0.0127299 0.00598907 0.0122721 0.00553131 0.0117152 0.00553131C0.0111659 0.00553131 0.0107081 0.00598907 0.0107081 0.00652313V0.0110626H0.00626016C0.00574136 0.0110626 0.00526071 0.011528 0.00526071 0.0120773C0.00526071 0.0126343 0.00574136 0.013092 0.00626016 0.013092H0.0107081V0.0176315C0.0107081 0.0181503 0.0111659 0.0186234 0.0117152 0.0186234Z" fill="white"/>
</g>
</svg>
