<svg xmlns="http://www.w3.org/2000/svg" xmlns:xlink="http://www.w3.org/1999/xlink"><symbol id="dark-mode" viewBox="0 0 24 24"><g fill="none">
<path fill-rule="evenodd" clip-rule="evenodd" d="M3 12C3 7.03 7.03 3 12 3C12.46 3 12.92 3.04 13.36 3.1C11.99 4.08 11.1 5.69 11.1 7.5C11.1 10.48 13.52 12.9 16.5 12.9C18.32 12.9 19.92 12.01 20.9 10.64C20.96 11.08 21 11.54 21 12C21 16.97 16.97 21 12 21C7.03 21 3 16.97 3 12ZM9.1 7.5C9.1 6.82 9.19 6.15 9.37 5.51C6.81 6.55 5 9.07 5 12C5 15.86 8.14 19 12 19C14.93 19 17.45 17.19 18.49 14.63C17.85 14.81 17.18 14.9 16.5 14.9C12.42 14.9 9.1 11.58 9.1 7.5Z" fill="white"/>
</g></symbol><symbol id="discord" viewBox="0 0 24 24"><g fill="none">
<path fill-rule="evenodd" clip-rule="evenodd" d="M18.9308 5.64368C17.6561 5.05878 16.2892 4.62785 14.8599 4.38104C14.8339 4.37628 14.8079 4.38818 14.7945 4.41199C14.6187 4.72467 14.4239 5.13258 14.2876 5.4532C12.7503 5.22306 11.221 5.22306 9.71527 5.4532C9.57887 5.12546 9.37707 4.72467 9.20048 4.41199C9.18707 4.38898 9.16107 4.37707 9.13504 4.38104C7.70659 4.62706 6.33963 5.05799 5.06411 5.64368C5.05307 5.64844 5.04361 5.65639 5.03732 5.6667C2.44449 9.54033 1.73421 13.3188 2.08265 17.0503C2.08423 17.0686 2.09447 17.086 2.10867 17.0971C3.81934 18.3534 5.47642 19.1161 7.10273 19.6216C7.12876 19.6296 7.15634 19.62 7.1729 19.5986C7.55761 19.0733 7.90054 18.5193 8.19456 17.9368C8.21192 17.9027 8.19535 17.8622 8.15989 17.8487C7.61594 17.6424 7.098 17.3908 6.59977 17.1051C6.56037 17.0821 6.55721 17.0257 6.59346 16.9987C6.69831 16.9202 6.80318 16.8384 6.9033 16.7559C6.92141 16.7408 6.94665 16.7376 6.96794 16.7471C10.2411 18.2415 13.7846 18.2415 17.0191 16.7471C17.0404 16.7368 17.0657 16.74 17.0846 16.7551C17.1847 16.8376 17.2895 16.9202 17.3952 16.9987C17.4314 17.0257 17.4291 17.0821 17.3897 17.1051C16.8914 17.3963 16.3735 17.6424 15.8288 17.8479C15.7933 17.8614 15.7775 17.9027 15.7949 17.9368C16.0952 18.5185 16.4381 19.0724 16.8157 19.5978C16.8315 19.62 16.8599 19.6296 16.8859 19.6216C18.5201 19.1161 20.1772 18.3534 21.8879 17.0971C21.9028 17.086 21.9123 17.0694 21.9139 17.0511C22.3309 12.737 21.2154 8.98957 18.9568 5.66749C18.9513 5.65639 18.9419 5.64844 18.9308 5.64368ZM8.68335 14.7782C7.69792 14.7782 6.88594 13.8735 6.88594 12.7624C6.88594 11.6513 7.68217 10.7466 8.68335 10.7466C9.69239 10.7466 10.4965 11.6593 10.4807 12.7624C10.4807 13.8735 9.68451 14.7782 8.68335 14.7782ZM13.5316 12.7624C13.5316 13.8735 14.3435 14.7782 15.329 14.7782C16.338 14.7782 17.1264 13.8735 17.1264 12.7624C17.1421 11.6593 16.338 10.7466 15.329 10.7466C14.3278 10.7466 13.5316 11.6513 13.5316 12.7624Z" fill="white"/>
</g></symbol><symbol id="facebook" viewBox="0 0 24 24"><g fill="none">
<path fill-rule="evenodd" clip-rule="evenodd" d="M22 12C22 6.47715 17.5229 2 12 2C6.47715 2 2 6.47715 2 12C2 16.9913 5.65686 21.1283 10.4375 21.8785V14.8906H7.89844V12H10.4375V9.79688C10.4375 7.29063 11.9304 5.90625 14.2146 5.90625C15.3087 5.90625 16.4531 6.10156 16.4531 6.10156V8.5625H15.1921C13.9499 8.5625 13.5625 9.33334 13.5625 10.1242V12H16.3359L15.8926 14.8906H13.5625V21.8785C18.3431 21.1283 22 16.9913 22 12Z" fill="white"/>
</g></symbol><symbol id="icon-close" viewBox="0 0 24 24"><g fill="none">
<path fill-rule="evenodd" clip-rule="evenodd" d="M18.7071 5.29289C19.0976 5.68342 19.0976 6.31658 18.7071 6.70711L6.70711 18.7071C6.31658 19.0976 5.68342 19.0976 5.29289 18.7071C4.90237 18.3166 4.90237 17.6834 5.29289 17.2929L17.2929 5.29289C17.6834 4.90237 18.3166 4.90237 18.7071 5.29289Z" fill="currentColor"/>
<path fill-rule="evenodd" clip-rule="evenodd" d="M5.29289 5.29289C5.68342 4.90237 6.31658 4.90237 6.70711 5.29289L18.7071 17.2929C19.0976 17.6834 19.0976 18.3166 18.7071 18.7071C18.3166 19.0976 17.6834 19.0976 17.2929 18.7071L5.29289 6.70711C4.90237 6.31658 4.90237 5.68342 5.29289 5.29289Z" fill="currentColor"/>
</g></symbol><symbol id="instagram" viewBox="0 0 24 24"><g fill="none">
<path fill-rule="evenodd" clip-rule="evenodd" d="M12 2C9.28416 2 8.94362 2.01151 7.87701 2.06018C6.81263 2.10872 6.08569 2.27779 5.44962 2.52501C4.79203 2.78052 4.23436 3.12246 3.67839 3.67839C3.12246 4.23436 2.78052 4.79203 2.52501 5.44962C2.27779 6.08569 2.10872 6.81263 2.06018 7.87701C2.01151 8.94362 2 9.28416 2 12C2 14.7158 2.01151 15.0564 2.06018 16.123C2.10872 17.1874 2.27779 17.9143 2.52501 18.5504C2.78052 19.208 3.12246 19.7656 3.67839 20.3216C4.23436 20.8775 4.79203 21.2195 5.44962 21.475C6.08569 21.7222 6.81263 21.8913 7.87701 21.9398C8.94362 21.9885 9.28416 22 12 22C14.7158 22 15.0564 21.9885 16.123 21.9398C17.1874 21.8913 17.9143 21.7222 18.5504 21.475C19.208 21.2195 19.7656 20.8775 20.3216 20.3216C20.8775 19.7656 21.2195 19.208 21.475 18.5504C21.7222 17.9143 21.8913 17.1874 21.9398 16.123C21.9885 15.0564 22 14.7158 22 12C22 9.28416 21.9885 8.94362 21.9398 7.87701C21.8913 6.81263 21.7222 6.08569 21.475 5.44962C21.2195 4.79203 20.8775 4.23436 20.3216 3.67839C19.7656 3.12246 19.208 2.78052 18.5504 2.52501C17.9143 2.27779 17.1874 2.10872 16.123 2.06018C15.0564 2.01151 14.7158 2 12 2ZM12 3.8018C14.6701 3.8018 14.9864 3.812 16.0409 3.86011C17.0158 3.90457 17.5453 4.06748 17.8977 4.20443C18.3645 4.38583 18.6976 4.60253 19.0475 4.95248C19.3975 5.30239 19.6142 5.63551 19.7956 6.10229C19.9325 6.45466 20.0954 6.98415 20.1399 7.95914C20.188 9.0136 20.1982 9.32989 20.1982 12C20.1982 14.6701 20.188 14.9864 20.1399 16.0409C20.0954 17.0158 19.9325 17.5453 19.7956 17.8977C19.6142 18.3645 19.3975 18.6976 19.0475 19.0475C18.6976 19.3975 18.3645 19.6142 17.8977 19.7956C17.5453 19.9325 17.0158 20.0954 16.0409 20.1399C14.9866 20.188 14.6703 20.1982 12 20.1982C9.32969 20.1982 9.01348 20.188 7.95914 20.1399C6.98415 20.0954 6.45466 19.9325 6.10229 19.7956C5.63551 19.6142 5.30239 19.3975 4.95248 19.0475C4.60257 18.6976 4.38583 18.3645 4.20443 17.8977C4.06748 17.5453 3.90457 17.0158 3.86011 16.0409C3.812 14.9864 3.8018 14.6701 3.8018 12C3.8018 9.32989 3.812 9.0136 3.86011 7.95914C3.90457 6.98415 4.06748 6.45466 4.20443 6.10229C4.38583 5.63551 4.60253 5.30239 4.95248 4.95248C5.30239 4.60253 5.63551 4.38583 6.10229 4.20443C6.45466 4.06748 6.98415 3.90457 7.95914 3.86011C9.0136 3.812 9.32989 3.8018 12 3.8018ZM12 15.3333C10.159 15.3333 8.66667 13.841 8.66667 12C8.66667 10.159 10.159 8.66667 12 8.66667C13.841 8.66667 15.3333 10.159 15.3333 12C15.3333 13.841 13.841 15.3333 12 15.3333ZM12 6.86487C9.16393 6.86487 6.86487 9.16393 6.86487 12C6.86487 14.8361 9.16393 17.1351 12 17.1351C14.8361 17.1351 17.1351 14.8361 17.1351 12C17.1351 9.16393 14.8361 6.86487 12 6.86487ZM17.338 7.86197C18.0008 7.86197 18.538 7.32474 18.538 6.66199C18.538 5.99924 18.0008 5.46197 17.338 5.46197C16.6753 5.46197 16.138 5.99924 16.138 6.66199C16.138 7.32474 16.6753 7.86197 17.338 7.86197Z" fill="white"/>
</g></symbol><symbol id="minus" viewBox="0 0 1 1"><g fill="none">
<g id="minus">
<path id="shape" d="M0.0171778 0.013092C0.0177119 0.013092 0.0181773 0.0126343 0.0181773 0.0120773C0.0181773 0.011528 0.0177119 0.0110626 0.0171778 0.0110626H0.00626016C0.00574136 0.0110626 0.00526071 0.011528 0.00526071 0.0120773C0.00526071 0.0126343 0.00574136 0.013092 0.00626016 0.013092H0.0171778Z" fill="white"/>
</g>
</g></symbol><symbol id="play" viewBox="0 0 24 24"><g fill="none">
<path d="M8.46313 17.6799C8.75977 17.6799 9.01685 17.5876 9.35303 17.3899L17.2039 12.8416C17.7905 12.4988 18.0608 12.2087 18.0608 11.7473C18.0608 11.2859 17.7905 10.9958 17.2039 10.6531L9.35303 6.10474C9.01685 5.91357 8.75977 5.8147 8.46313 5.8147C7.88306 5.8147 7.44141 6.25635 7.44141 6.98145V16.5198C7.44141 17.2383 7.88306 17.6799 8.46313 17.6799Z" fill="black" fill-opacity="0.8"/>
</g></symbol><symbol id="plus" viewBox="0 0 1 1"><g fill="none">
<g id="plus">
<path id="shape" d="M0.0117152 0.0186234C0.0122721 0.0186234 0.0127299 0.0181503 0.0127299 0.0176315V0.013092H0.0171778C0.0177119 0.013092 0.0181773 0.0126343 0.0181773 0.0120773C0.0181773 0.011528 0.0177119 0.0110626 0.0171778 0.0110626H0.0127299V0.00652313C0.0127299 0.00598907 0.0122721 0.00553131 0.0117152 0.00553131C0.0111659 0.00553131 0.0107081 0.00598907 0.0107081 0.00652313V0.0110626H0.00626016C0.00574136 0.0110626 0.00526071 0.011528 0.00526071 0.0120773C0.00526071 0.0126343 0.00574136 0.013092 0.00626016 0.013092H0.0107081V0.0176315C0.0107081 0.0181503 0.0111659 0.0186234 0.0117152 0.0186234Z" fill="white"/>
</g>
</g></symbol><symbol id="telegram" viewBox="0 0 24 24"><g fill="none">
<path fill-rule="evenodd" clip-rule="evenodd" d="M12 22C17.5228 22 22 17.5228 22 12C22 6.47715 17.5228 2 12 2C6.47715 2 2 6.47715 2 12C2 17.5228 6.47715 22 12 22ZM12.3583 9.38244C11.3857 9.787 9.44177 10.6243 6.52657 11.8944C6.05318 12.0827 5.80521 12.2669 5.78263 12.4469C5.74448 12.7513 6.12559 12.8711 6.64455 13.0343C6.71514 13.0565 6.78829 13.0795 6.86327 13.1038C7.37386 13.2698 8.06068 13.464 8.41773 13.4717C8.74161 13.4787 9.1031 13.3452 9.50219 13.0711C12.226 11.2325 13.632 10.3032 13.7202 10.2831C13.7825 10.269 13.8688 10.2512 13.9273 10.3032C13.9858 10.3552 13.98 10.4536 13.9738 10.48C13.9361 10.641 12.4401 12.0317 11.6659 12.7515C11.4246 12.9759 11.2534 13.135 11.2184 13.1714C11.14 13.2528 11.0601 13.3298 10.9833 13.4038C10.509 13.8611 10.1532 14.204 11.003 14.764C11.4114 15.0331 11.7381 15.2556 12.0641 15.4776C12.4201 15.7201 12.7752 15.9619 13.2347 16.2631C13.3517 16.3398 13.4635 16.4195 13.5724 16.4971C13.9867 16.7925 14.3589 17.0579 14.8188 17.0155C15.086 16.991 15.362 16.7397 15.5022 15.9903C15.8335 14.2193 16.4847 10.382 16.6352 8.80081C16.6484 8.66228 16.6318 8.48498 16.6185 8.40715C16.6051 8.32932 16.5773 8.21842 16.4761 8.13633C16.3563 8.03911 16.1714 8.01861 16.0886 8.02007C15.7125 8.0267 15.1355 8.22735 12.3583 9.38244Z" fill="white"/>
</g></symbol><symbol id="twitter" viewBox="0 0 24 24"><g fill="none">
<path d="M8.28 20.126C15.824 20.126 19.952 13.87 19.952 8.454C19.952 8.278 19.952 8.102 19.944 7.926C20.744 7.35 21.44 6.62199 21.992 5.798C21.256 6.126 20.464 6.342 19.632 6.446C20.48 5.942 21.128 5.134 21.44 4.174C20.648 4.646 19.768 4.982 18.832 5.166C18.08 4.366 17.016 3.87 15.84 3.87C13.576 3.87 11.736 5.71 11.736 7.974C11.736 8.294 11.776 8.606 11.84 8.91C8.432 8.74199 5.408 7.10199 3.384 4.622C3.032 5.23 2.832 5.934 2.832 6.686C2.832 8.10999 3.56 9.36599 4.656 10.102C3.984 10.078 3.352 9.89399 2.8 9.58999C2.8 9.60599 2.8 9.62199 2.8 9.646C2.8 11.63 4.216 13.294 6.088 13.67C5.744 13.766 5.384 13.814 5.008 13.814C4.744 13.814 4.488 13.79 4.24 13.742C4.76 15.374 6.28 16.558 8.072 16.59C6.664 17.694 4.896 18.35 2.976 18.35C2.648 18.35 2.32 18.334 2 18.294C3.808 19.446 5.968 20.126 8.28 20.126Z" fill="white"/>
</g></symbol></svg>