<svg width="24" height="24" fill="none" xmlns="http://www.w3.org/2000/svg"><path fill-rule="evenodd" clip-rule="evenodd" d="M11.947 6.646c1.111.101 2.222-.606 2.93-1.414.706-.909 1.11-2.12 1.01-3.232-1.01 0-2.223.606-2.93 1.515-.606.707-1.212 1.92-1.01 3.131Zm7.575 2.223a4.44 4.44 0 0 0-3.636-2.02c-1.001-.063-1.925.3-2.65.587-.447.175-.818.322-1.088.322-.299 0-.688-.163-1.138-.351-.613-.256-1.336-.559-2.094-.559-1.616 0-3.232 1.01-4.04 2.526-1.818 3.03-.505 7.575 1.212 10.1C6.896 20.688 7.906 22 9.219 22c.573 0 .987-.18 1.425-.37.49-.213 1.008-.438 1.808-.438.784 0 1.27.217 1.74.426.437.194.859.382 1.492.382 1.313 0 2.222-1.212 3.03-2.424.91-1.414 1.313-2.727 1.313-2.829 0 0-2.626-1.01-2.626-4.04 0-2.287 1.658-3.497 2.045-3.78.04-.03.067-.049.076-.058Z" fill="#fff"/></svg>