<svg width="24" height="24" fill="none" xmlns="http://www.w3.org/2000/svg"><path d="M21.994 12.447c0-.673-.06-1.311-.162-1.933h-9.621v3.84h5.509c-.247 1.26-.971 2.325-2.044 3.048v2.554h3.287c1.924-1.779 3.03-4.401 3.03-7.51Z" fill="#4285F4"/><path d="M12.213 22.434c2.758 0 5.066-.92 6.751-2.477l-3.286-2.555c-.92.613-2.086.988-3.466.988-2.664 0-4.92-1.796-5.73-4.223H3.094v2.63c1.677 3.338 5.125 5.637 9.119 5.637Z" fill="#34A853"/><path d="M6.49 14.167a5.929 5.929 0 0 1-.323-1.95c0-.681.12-1.337.324-1.95v-2.63H3.102a10.099 10.099 0 0 0 0 9.16l3.389-2.63Z" fill="#FBBC05"/><path d="M12.213 6.044c1.507 0 2.852.52 3.916 1.533l2.912-2.912C17.279 3.013 14.971 2 12.212 2 8.22 2 4.772 4.299 3.095 7.636l3.388 2.631c.81-2.426 3.066-4.223 5.73-4.223Z" fill="#EA4335"/></svg>