<svg width="24" height="24" viewBox="0 0 24 24" fill="none" xmlns="http://www.w3.org/2000/svg">
<path d="M21.9938 12.4469C21.9938 11.7743 21.9342 11.1357 21.8321 10.5142H12.2109V14.3541H17.7197C17.4728 15.6142 16.749 16.6785 15.6762 17.4022V19.9565H18.9627C20.887 18.177 21.9938 15.5546 21.9938 12.4469Z" fill="#4285F4"/>
<path d="M12.2125 22.4343C14.9711 22.4343 17.2785 21.5148 18.9643 19.9567L15.6778 17.4024C14.7583 18.0154 13.5918 18.3901 12.2125 18.3901C9.54756 18.3901 7.29128 16.5936 6.48243 14.167H3.09375V16.7979C4.77106 20.1355 8.21934 22.4343 12.2125 22.4343Z" fill="#34A853"/>
<path d="M6.49092 14.1669C6.27807 13.5539 6.16738 12.8983 6.16738 12.2171C6.16738 11.536 6.28658 10.8804 6.49092 10.2674V7.63647H3.10225C2.40408 9.01579 2.00391 10.5654 2.00391 12.2171C2.00391 13.8689 2.40408 15.4185 3.10225 16.7978L6.49092 14.1669Z" fill="#FBBC05"/>
<path d="M12.2125 6.04427C13.7196 6.04427 15.0648 6.56364 16.1291 7.57684L19.041 4.66496C17.2785 3.0132 14.9711 2 12.2125 2C8.21934 2 4.77106 4.29885 3.09375 7.63644L6.48243 10.2673C7.29128 7.84078 9.54756 6.04427 12.2125 6.04427Z" fill="#EA4335"/>
</svg>
